<?xml version="1.0" encoding="utf-8"?>
<!-- Generator: Adobe Illustrator 19.0.0, SVG Export Plug-In . SVG Version: 6.00 Build 0)  -->
<svg version="1.1" id="Layer_1" xmlns="http://www.w3.org/2000/svg" xmlns:xlink="http://www.w3.org/1999/xlink" x="0px" y="0px"
	 width="1000px" height="333px" viewBox="-599.3 -878.8 1000 333" style="enable-background:new -599.3 -878.8 1000 333;"
	 xml:space="preserve">
<style type="text/css">
	.st0{fill:#A6A6A6;}
	.st1{fill:#00B0FF;}
	.st2{fill:#FFFFFF;}
</style>
<path class="st0" d="M352.2-564.8H-545c-18.6,0-33.8-15.2-33.8-33.8v-218.4c0-18.6,15.2-33.8,33.8-33.8h897.2
	c18.6,0,34.3,15.2,34.3,33.8v218.4C386.5-580.1,370.8-564.8,352.2-564.8L352.2-564.8z"/>
<path d="M379.6-598.7c0,15.1-12.3,27.4-27.4,27.4H-545c-15.2,0-27.5-12.3-27.5-27.4v-218.4c0-15.1,12.3-27.4,27.5-27.4h897.2
	c15.2,0,27.4,12.3,27.4,27.4L379.6-598.7L379.6-598.7z"/>
<g id="XMLID_13_">
	<g id="XMLID_14_">
		<circle id="XMLID_30_" class="st1" cx="-412.2" cy="-705.3" r="89.6"/>
		<g id="XMLID_27_">
			<path id="XMLID_29_" class="st2" d="M-467.2-715.2v35.6c0,4.3,3.5,7.9,7.9,7.9h0.2c4.3,0,7.9-3.5,7.9-7.9v-34.9h0
				c0-8.7,7.1-15.8,15.8-15.8c8.7,0,15.8,7,15.8,15.8v29.4c0,4.4,3.6,8,8,8h0.2c4.4,0,8-3.6,8-8v-29.4h0c0-8.7,7.1-15.8,15.8-15.8
				c8.7,0,15.8,7.1,15.8,15.8h0v34.8c0,4.4,3.6,8,8,8h0.2c4.4,0,8-3.6,8-8v-36c0-0.4,0-0.8-0.1-1.2c-1.2-16.5-15-29.5-31.8-29.5
				c-9.5,0-18.1,4.2-23.9,10.8c-5.8-6.6-14.4-10.8-23.9-10.8c-17.1,0-31.1,13.5-31.8,30.4C-467.2-715.7-467.2-715.4-467.2-715.2z"/>
			<path id="XMLID_28_" class="st2" d="M-436.7-666.7c5.7,8.2,14.3,11.8,24.4,11.8s18.7-3.7,24.4-11.8c0,0,0.7-1.1,0.2-1.8
				c-0.4-0.6-1.5,0.6-1.5,0.6c-4.4,4.8-13.6,7.9-23.1,7.9c-9.5,0-18.6-3.1-23.1-7.9c0,0-1.2-1.2-1.5-0.6
				C-437.5-667.8-436.8-666.7-436.7-666.7z"/>
		</g>
	</g>
</g>
<rect x="-252" y="-844.5" class="st2" width="7.7" height="273.2"/>
<g>
	<path class="st2" d="M-121.7-784.6v-5.4l19.5,0v17.1c-6,4.8-12.4,7.2-19.1,7.2c-4.5,0-8.6-1-12.4-2.9c-3.7-2-6.5-4.8-8.4-8.4
		c-1.9-3.7-2.8-7.8-2.8-12.3c0-4.5,0.9-8.6,2.8-12.5c1.9-3.9,4.6-6.8,8.1-8.7c3.5-1.9,7.6-2.8,12.2-2.8c3.4,0,6.4,0.6,9,1.6
		c2.7,1.1,4.8,2.5,6.3,4.5c1.5,1.9,2.7,4.4,3.5,7.5l-5.5,1.5c-0.7-2.3-1.6-4.2-2.6-5.5c-1-1.4-2.5-2.4-4.4-3.2
		c-1.9-0.8-4-1.2-6.3-1.2c-2.1,0-4,0.2-5.7,0.7c-1.6,0.5-3.1,1.2-4.3,2c-1.2,0.9-2.3,1.8-3.1,2.9c-0.8,1.1-1.5,2.3-2,3.5
		c-1.2,2.9-1.8,6-1.8,9.3c0,4.1,0.7,7.6,2.1,10.3c1.4,2.8,3.5,4.8,6.2,6.1c2.7,1.3,5.6,2,8.6,2c2.6,0,5.2-0.5,7.7-1.5
		c1.3-0.5,2.4-1.1,3.3-1.6c1-0.5,1.8-1.1,2.4-1.7v-8.6H-121.7z"/>
	<path class="st2" d="M-65.6-776.6c-0.9,3.4-2.7,6.1-5.1,8c-2.5,1.9-5.7,2.8-9.6,2.8c-4.9,0-8.8-1.5-11.6-4.5
		c-2.9-3-4.3-7.2-4.3-12.7c0-5.6,1.4-10,4.3-13.1c2.9-3.1,6.6-4.7,11.3-4.7c4.5,0,8.1,1.5,10.9,4.6c2.8,3.1,4.2,7.3,4.2,12.8
		c0,0.2,0,0.4,0,0.6s0,0.5,0,0.9h-24.9c0.2,3.7,1.3,6.5,3.1,8.4c1.8,1.9,4.2,2.9,7,2.9c2.1,0,3.8-0.5,5.3-1.6
		c1.5-1.1,2.6-2.8,3.5-5.2L-65.6-776.6z M-71.4-786.4c-0.3-2.8-1-4.9-2.1-6.3c-1.8-2.2-4.1-3.3-7-3.3c-2.6,0-4.8,0.9-6.6,2.6
		c-1.8,1.7-2.7,4.1-2.9,7H-71.4z"/>
	<path class="st2" d="M-45.6-766.6c-1.6,0.3-3,0.5-4.3,0.5c-2.1,0-3.6-0.3-4.8-1c-1.1-0.6-1.9-1.5-2.4-2.5s-0.7-3.3-0.7-6.7v-19.2
		h-4.1v-4.4h4.1v-8.3l5.6-3.4v11.7h5.7v4.4h-5.7v19.5c0,1.6,0.1,2.6,0.3,3.1c0.2,0.5,0.5,0.8,1,1.1c0.5,0.3,1.1,0.4,1.9,0.4
		c0.3,0,0.7,0,1.1,0c0.4,0,0.9-0.1,1.4-0.2L-45.6-766.6z"/>
	<path class="st2" d="M-15.4-806.1v-6.5h5.7v6.5H-15.4z M-15.4-766.5v-33.4h5.7v33.4H-15.4z"/>
	<path class="st2" d="M-2-766.5v-33.4h5.1v4.7c2.5-3.7,6-5.5,10.6-5.5c2,0,3.8,0.4,5.5,1.1c1.7,0.7,2.9,1.7,3.8,2.8
		c0.4,0.6,0.8,1.2,1.1,1.9c0.3,0.7,0.5,1.5,0.7,2.2c0.1,0.5,0.2,1.2,0.2,2.2c0,0.9,0.1,2,0.1,3.4v20.5h-5.7v-20.3
		c0-2.3-0.2-4-0.7-5.2c-0.4-1.2-1.2-2.1-2.4-2.7c-1.1-0.7-2.4-1-3.9-1c-2.4,0-4.5,0.8-6.3,2.3c-1.7,1.6-2.6,4.4-2.6,8.7v18.2H-2z"/>
	<path class="st2" d="M53.8-783.2c0-6.2,1.7-10.7,5.2-13.7c2.8-2.5,6.3-3.7,10.5-3.7c4.6,0,8.3,1.5,11.3,4.5c2.9,3,4.4,7.1,4.4,12.4
		c0,4.3-0.7,7.7-2,10.1c-1.3,2.5-3.2,4.4-5.6,5.7c-2.5,1.4-5.2,2-8,2c-4.7,0-8.5-1.5-11.3-4.5C55.2-773.3,53.8-777.6,53.8-783.2z
		 M59.6-783.2c0,4.3,0.9,7.5,2.8,9.6c1.9,2.1,4.2,3.2,7,3.2c2.8,0,5.1-1.1,7-3.2c1.9-2.2,2.8-5.4,2.8-9.8c0-4.1-0.9-7.2-2.8-9.4
		c-1.9-2.1-4.2-3.2-7-3.2c-2.8,0-5.2,1.1-7,3.2C60.6-790.7,59.6-787.5,59.6-783.2z"/>
	<path class="st2" d="M91.7-766.5v-33.4h5.1v4.7c2.5-3.7,6-5.5,10.6-5.5c2,0,3.8,0.4,5.5,1.1c1.7,0.7,2.9,1.7,3.8,2.8
		c0.4,0.6,0.8,1.2,1.1,1.9c0.3,0.7,0.5,1.5,0.7,2.2c0.1,0.5,0.2,1.2,0.2,2.2c0,0.9,0.1,2,0.1,3.4v20.5h-5.7v-20.3
		c0-2.3-0.2-4-0.7-5.2c-0.4-1.2-1.2-2.1-2.4-2.7c-1.1-0.7-2.4-1-3.9-1c-2.4,0-4.5,0.8-6.3,2.3c-1.7,1.6-2.6,4.4-2.6,8.7v18.2H91.7z"
		/>
</g>
<g id="XMLID_231_">
	<path id="XMLID_241_" class="st2" d="M-67.5-661v28.6c0,4.6-1,7.9-3.1,10.2c-2,2.2-4.7,3.4-8.1,3.4c-3.3,0-5.9-1.1-7.9-3.4
		c-2-2.2-3.1-5.7-3.1-10.2v-34.4c0-5.4-0.2-9.7-0.6-12.6c-0.4-3-1.4-5.5-3-7.3c-1.7-2-4.2-2.9-7.7-2.9c-7.1,0-11.7,2.4-13.9,7.3
		c-2.2,4.8-3.3,11.8-3.3,20.8v29.1c0,4.5-1,7.9-3.1,10.1c-2,2.3-4.7,3.4-8,3.4c-3.3,0-5.9-1.1-8-3.4c-2-2.3-3.2-5.7-3.2-10.1v-61.6
		c0-4.1,0.9-7.2,2.8-9.2c1.9-2.1,4.4-3.2,7.3-3.2c3,0,5.4,1,7.3,3c2,2,3,4.7,3,8.2v2c3.7-4.5,7.7-7.8,12-9.9c4.3-2.1,9-3.2,14.2-3.2
		c5.4,0,10,1.1,13.9,3.3c3.9,2.1,7.1,5.4,9.7,9.8c3.6-4.5,7.5-7.7,11.7-9.9c4.2-2.1,8.7-3.2,13.9-3.2c5.9,0,11,1.1,15.2,3.4
		s7.4,5.7,9.6,9.9c1.9,3.9,2.8,10,2.8,18.4v42.1c0,4.6-1,7.9-3.1,10.2c-2,2.2-4.7,3.4-8.1,3.4c-3.3,0-5.9-1.1-8-3.4
		c-2-2.3-3.2-5.7-3.2-10.1v-36.3c0-4.6-0.2-8.4-0.6-11.2c-0.4-2.8-1.5-5.1-3.2-7.1c-1.8-1.9-4.4-2.9-7.9-2.9c-2.9,0-5.6,0.8-8.1,2.5
		c-2.5,1.7-4.6,3.9-5.9,6.8C-66.7-676.7-67.5-670.2-67.5-661z"/>
	<path id="XMLID_239_" class="st2" d="M23.8-616.2l2-4.8l-26.5-66.7c-1.7-3.8-2.4-6.6-2.4-8.4c0-1.9,0.5-3.5,1.4-5.1
		s2.2-2.9,3.9-3.8c1.7-0.9,3.3-1.4,5.2-1.4c3.1,0,5.5,1,7.1,3c1.6,2,3,4.8,4.2,8.5l18.2,53.1l17.3-49.4c1.4-4,2.6-7.2,3.7-9.4
		c1.1-2.2,2.2-3.8,3.5-4.6c1.2-0.7,3-1.2,5.2-1.2c1.7,0,3.2,0.5,4.7,1.3c1.6,0.8,2.7,2,3.4,3.5c0.8,1.5,1.2,3.1,1.2,4.6
		c-0.2,1-0.6,2.4-1,4.3c-0.5,1.9-1,3.7-1.8,5.6l-28.1,73.6c-2.4,6.5-4.8,11.5-7.1,15.2c-2.3,3.7-5.4,6.5-9.2,8.5
		c-3.8,2-8.9,3-15.4,3c-6.3,0-11.1-0.6-14.2-2s-4.7-3.9-4.7-7.5c0-2.5,0.7-4.4,2.2-5.8c1.5-1.4,3.7-2,6.7-2c1.1,0,2.3,0.2,3.4,0.5
		c1.4,0.3,2.5,0.5,3.5,0.5c2.5,0,4.5-0.4,5.9-1.1c1.4-0.7,2.7-2,3.8-3.8C21-609.9,22.3-612.6,23.8-616.2z"/>
	<path id="XMLID_237_" class="st2" d="M145.3-628.7l-19.1-31.2l-11.7,11.1v17.1c0,4.2-1.1,7.3-3.3,9.6c-2.2,2.2-4.7,3.3-7.5,3.3
		c-3.3,0-5.9-1.1-7.8-3.3c-1.9-2.2-2.9-5.5-2.9-9.8v-91.9c0-4.8,0.9-8.5,2.8-11c1.9-2.5,4.5-3.7,7.9-3.7c3.3,0,5.9,1.1,7.9,3.4
		c2,2.2,2.9,5.6,2.9,10v52.2l24.3-25.5c3-3.2,5.3-5.3,6.9-6.5c1.6-1.1,3.5-1.8,5.8-1.8c2.7,0,4.9,0.8,6.7,2.6
		c1.8,1.7,2.7,3.8,2.7,6.4c0,3.2-2.9,7.3-8.7,12.6l-11.4,10.5l22.1,34.8c1.7,2.6,2.8,4.6,3.5,5.9c0.7,1.3,1,2.6,1,3.8
		c0,3.4-0.9,6.1-2.8,8.1c-1.9,2-4.4,3-7.3,3c-2.6,0-4.6-0.7-6-2.1C149.7-622.5,147.7-625,145.3-628.7z"/>
	<path id="XMLID_234_" class="st2" d="M238.3-657.3h-42.2c0.1,4.9,1,9.2,3,12.9c2,3.7,4.5,6.6,7.6,8.5c3.2,1.9,6.7,2.9,10.5,2.9
		c2.6,0,4.9-0.3,7.1-0.9c2.1-0.6,4.2-1.6,6.2-2.9c2-1.3,3.8-2.7,5.5-4.2s3.9-3.4,6.6-6c1.1-0.9,2.7-1.4,4.7-1.4c2.2,0,4,0.6,5.4,1.9
		c1.4,1.2,2,2.9,2,5.1c0,2-0.7,4.2-2.3,6.8c-1.5,2.6-3.8,5.1-6.9,7.5c-3.1,2.4-7,4.4-11.6,5.9c-4.6,1.6-10,2.3-16.1,2.3
		c-13.9,0-24.6-3.9-32.3-11.8c-7.7-7.9-11.5-18.6-11.5-32.2c0-6.4,0.9-12.3,2.9-17.8c1.9-5.5,4.6-10.1,8.3-14
		c3.6-3.9,8.1-6.9,13.4-8.9c5.3-2,11.2-3.2,17.7-3.2c8.5,0,15.6,1.8,21.7,5.3c6,3.5,10.5,8.2,13.6,13.8c3.1,5.6,4.5,11.3,4.5,17.2
		c0,5.4-1.6,8.9-4.6,10.5C248.3-658.2,243.9-657.3,238.3-657.3z M196.1-669.6h39c-0.6-7.3-2.5-12.9-5.9-16.5
		c-3.4-3.6-8-5.5-13.7-5.5c-5.4,0-9.8,1.9-13.2,5.6C198.9-682.3,196.9-676.8,196.1-669.6z"/>
	<path id="XMLID_232_" class="st2" d="M275.4-704.5h2.3v-12.9c0-3.4,0.1-6.2,0.3-8.2c0.2-2,0.6-3.7,1.6-5.1c0.8-1.5,2-2.7,3.6-3.6
		c1.6-0.9,3.3-1.4,5.3-1.4c2.7,0,5.2,1,7.4,3.1c1.5,1.4,2.4,3.1,2.8,5c0.4,1.9,0.6,4.7,0.6,8.4v14.7h7.9c3.1,0,5.4,0.7,7,2.1
		c1.6,1.5,2.4,3.3,2.4,5.6c0,2.9-1.1,4.9-3.4,6c-2.3,1.1-5.6,1.8-9.9,1.8h-4v39.6c0,3.3,0.1,5.9,0.4,7.8c0.3,1.9,0.8,3.3,1.9,4.5
		c1,1.1,2.7,1.7,5,1.7c1.3,0,3-0.2,5.1-0.6c2.1-0.5,3.8-0.6,5-0.6c1.8,0,3.3,0.7,4.7,2.1c1.4,1.4,2.1,3.2,2.1,5.2
		c0,3.4-1.9,6.1-5.7,8c-3.8,1.9-9.2,2.8-16.4,2.8c-6.8,0-11.8-1.1-15.3-3.4c-3.4-2.2-5.8-5.4-6.8-9.4c-1.1-4-1.6-9.4-1.6-16v-41.4
		h-2.9c-3.1,0-5.5-0.7-7.1-2.2c-1.7-1.5-2.4-3.3-2.4-5.6s0.8-4.1,2.6-5.6C269.6-703.9,272.2-704.5,275.4-704.5z"/>
</g>
</svg>
